<svg width="77" height="82" viewBox="0 0 77 82" fill="none" xmlns="http://www.w3.org/2000/svg">
<path d="M26.6075 72.1975L12.7327 76.3644C8.2268 77.7176 3.98739 73.5946 5.21466 69.0528L8.67501 56.2468L45.2287 15.1515L63.1612 31.1022L26.6075 72.1975Z" fill="white"/>
<path d="M63.1623 31.1058L45.2298 15.1551L51.8759 7.68318C54.8124 4.3819 59.8691 4.08614 63.1703 7.02258L69.1479 12.3395C72.4491 15.2759 72.7449 20.3326 69.8085 23.6339L63.1623 31.1058Z" fill="white"/>
<path d="M26.6075 72.1975L63.1612 31.1022L45.2287 15.1515L8.67501 56.2468M26.6075 72.1975L12.7327 76.3644C8.2268 77.7176 3.98739 73.5946 5.21466 69.0528L8.67501 56.2468M26.6075 72.1975L8.67501 56.2468M63.1623 31.1058L45.2298 15.1551L51.8759 7.68318C54.8124 4.3819 59.8691 4.08614 63.1703 7.02258L69.1479 12.3395C72.4491 15.2759 72.7449 20.3326 69.8085 23.6339L63.1623 31.1058Z" stroke="black" stroke-width="9"/>
</svg>
