<svg width="190" height="181" viewBox="0 0 190 181" fill="none" xmlns="http://www.w3.org/2000/svg">
<path fill-rule="evenodd" clip-rule="evenodd" d="M158.093 130.442C144.424 153.524 119.27 169 90.5 169C47.1456 169 12 133.854 12 90.5C12 47.1456 47.1456 12 90.5 12C133.168 12 167.885 46.0412 168.974 88.4464L172.128 87.9012C175.329 87.348 178.455 88.0585 180.996 89.6709C180.551 40.0709 140.205 0 90.5 0C40.5182 0 0 40.5182 0 90.5C0 140.482 40.5182 181 90.5 181C127.159 181 158.727 159.204 172.951 127.864L166.458 129.041L166.419 129.048L166.38 129.054L158.093 130.442Z" fill="black"/>
<circle cx="65.5" cy="74.5" r="14.5" fill="black"/>
<circle cx="116.5" cy="74.5" r="14.5" fill="black"/>
<path fill-rule="evenodd" clip-rule="evenodd" d="M68.9998 113.646C68.9207 113.378 68.8455 113.108 68.7752 112.837C68.0652 110.096 65.7293 107.873 62.9012 107.991C60.073 108.11 57.8377 110.513 58.3738 113.293C59.4685 118.968 61.9783 124.307 65.7059 128.796C66.7273 130.027 67.8289 131.179 68.9998 132.248V113.646Z" fill="black"/>
<path d="M94.7901 107.002L160.834 95.9416M94.7901 107.002L99.3443 134.196M94.7901 107.002L73.5813 117.045M160.834 95.9416L165.389 123.136M160.834 95.9416L173.15 93.8132C176.74 93.1927 180.149 95.6145 180.745 99.2089L183.09 113.357C183.676 116.896 181.314 120.25 177.784 120.89L165.389 123.136M165.389 123.136L99.3443 134.196M99.3443 134.196L75.8584 130.642M75.8584 130.642L73.6409 130.307C67.2334 129.337 65.9565 120.656 71.8135 117.882L73.5813 117.045M75.8584 130.642L73.5813 117.045" stroke="black" stroke-width="12"/>
</svg>
