<svg width="181" height="181" viewBox="0 0 181 181" fill="none" xmlns="http://www.w3.org/2000/svg">
<circle cx="90.5" cy="90.5" r="84.5" stroke="black" stroke-width="12"/>
<circle cx="65.5" cy="74.5" r="14.5" fill="black"/>
<circle cx="116.5" cy="74.5" r="14.5" fill="black"/>
<path d="M118.873 106.856C121.608 107.589 123.265 110.422 122.135 113.017C119.829 118.318 116.216 122.981 111.599 126.55C105.623 131.169 98.2971 133.699 90.7445 133.753C83.192 133.806 75.8306 131.38 69.79 126.846C65.123 123.344 61.4438 118.732 59.0626 113.465C57.8965 110.886 59.5133 108.03 62.2369 107.258V107.258C64.9606 106.487 67.7485 108.108 69.0742 110.61C70.7352 113.743 73.0737 116.494 75.9436 118.648C80.1893 121.834 85.3634 123.54 90.6718 123.502C95.9802 123.464 101.13 121.686 105.33 118.439C108.169 116.245 110.468 113.461 112.084 110.304C113.374 107.785 116.139 106.124 118.873 106.856V106.856Z" fill="black"/>
</svg>
