<svg width="304" height="304" viewBox="0 0 304 304" fill="none" xmlns="http://www.w3.org/2000/svg">
<g clip-path="url(#clip0_619_735)">
<path d="M213.106 165.109C213.936 176.604 209.417 185.86 199.549 192.875C189.672 199.759 176.831 203.771 161.024 204.912C142.605 206.241 127.515 204.572 115.754 199.906C103.984 195.108 95.46 188.895 90.1823 181.266C84.9046 173.637 81.9783 165.838 81.4033 157.869C81.0734 153.297 81.7098 149.377 83.3125 146.11C84.9151 142.843 86.8921 141.125 89.2435 140.955C90.8111 140.842 92.1457 141.14 93.2473 141.848C94.2088 142.435 94.732 143.317 94.8168 144.492C94.9205 145.929 94.5158 147.6 93.6027 149.504C92.9132 150.867 92.4149 152.15 92.1078 153.354C91.7913 154.428 91.699 155.879 91.831 157.708C93.7161 183.834 117.65 195.238 163.632 191.921C178.394 190.856 188.992 187.596 195.426 182.142C201.731 176.697 204.543 169.272 203.865 159.867C203.686 157.385 203.301 154.786 202.711 152.071C203.14 150.727 204.333 149.984 206.293 149.843C207.991 149.72 209.466 151.058 210.719 153.857C211.971 156.655 212.767 160.406 213.106 165.109Z" fill="white"/>
<path d="M199.549 192.875L206.552 202.922L206.599 202.889L206.645 202.856L199.549 192.875ZM115.754 199.906L111.132 211.246L111.185 211.268L111.238 211.289L115.754 199.906ZM90.1823 181.266L100.254 174.299L100.254 174.299L90.1823 181.266ZM93.2473 141.848L86.6234 152.149L86.7432 152.226L86.8647 152.3L93.2473 141.848ZM93.6027 149.504L104.53 155.033L104.589 154.917L104.646 154.799L93.6027 149.504ZM92.1078 153.354L103.854 156.818L103.919 156.601L103.975 156.381L92.1078 153.354ZM195.426 182.142L203.345 191.484L203.388 191.447L203.431 191.41L195.426 182.142ZM202.711 152.071L191.043 148.353L190.049 151.472L190.744 154.671L202.711 152.071ZM210.719 153.857L221.897 148.854L221.897 148.854L210.719 153.857ZM200.892 165.99C201.395 172.964 199.048 178.205 192.453 182.893L206.645 202.856C219.785 193.515 226.477 180.245 225.321 164.228L200.892 165.99ZM192.547 182.828C184.964 188.113 174.428 191.666 160.143 192.697L161.906 217.127C179.233 215.877 194.381 211.405 206.552 202.922L192.547 182.828ZM160.143 192.697C142.783 193.949 129.715 192.27 120.271 188.522L111.238 211.289C125.315 216.875 142.427 218.532 161.906 217.127L160.143 192.697ZM120.376 188.565C110.019 184.343 103.764 179.372 100.254 174.299L80.1106 188.233C87.1565 198.418 97.9488 205.873 111.132 211.246L120.376 188.565ZM100.254 174.299C96.0185 168.176 94.0118 162.442 93.6183 156.988L69.1884 158.751C69.9448 169.234 73.7907 179.097 80.1106 188.233L100.254 174.299ZM93.6183 156.988C93.4045 154.024 93.8779 152.38 94.3075 151.504L72.3174 140.717C69.5418 146.375 68.7424 152.57 69.1884 158.751L93.6183 156.988ZM94.3075 151.504C94.6501 150.805 94.6573 151.07 94.0312 151.614C93.6881 151.913 93.1633 152.285 92.4466 152.598C91.7171 152.916 90.924 153.112 90.1248 153.17L88.3621 128.74C79.6216 129.371 74.7203 135.818 72.3174 140.717L94.3075 151.504ZM90.1248 153.17C89.5931 153.208 88.1691 153.143 86.6234 152.149L99.8711 131.547C96.1222 129.137 92.0291 128.476 88.3621 128.74L90.1248 153.17ZM86.8647 152.3C85.8131 151.658 84.686 150.643 83.8296 149.201C82.9847 147.777 82.6757 146.397 82.6019 145.374L107.032 143.611C106.678 138.706 104.147 134.155 99.6299 131.396L86.8647 152.3ZM82.6019 145.374C82.5469 144.612 82.6486 144.105 82.6887 143.94C82.7273 143.78 82.7269 143.861 82.5599 144.209L104.646 154.799C106.08 151.809 107.344 147.938 107.032 143.611L82.6019 145.374ZM82.675 143.975C81.6701 145.962 80.8124 148.088 80.241 150.328L103.975 156.381C104.017 156.213 104.156 155.773 104.53 155.033L82.675 143.975ZM80.3611 149.891C79.4484 152.986 79.4371 156.109 79.616 158.589L104.046 156.826C104.029 156.585 104.022 156.398 104.02 156.259C104.018 156.119 104.022 156.044 104.023 156.025C104.024 156.005 104.022 156.064 104.002 156.188C103.982 156.311 103.94 156.528 103.854 156.818L80.3611 149.891ZM79.616 158.589C80.8804 176.112 90.0431 189.343 105.927 196.912C120.747 203.973 140.766 205.849 164.514 204.136L162.751 179.706C140.516 181.31 125.577 179.143 116.463 174.8C108.413 170.964 104.667 165.43 104.046 156.826L79.616 158.589ZM164.514 204.136C180.132 203.009 193.921 199.472 203.345 191.484L187.508 172.8C184.062 175.72 176.656 178.703 162.751 179.706L164.514 204.136ZM203.431 191.41C213.079 183.077 216.994 171.665 216.08 158.985L191.65 160.748C192.092 166.879 190.382 170.317 187.422 172.874L203.431 191.41ZM216.08 158.985C215.854 155.863 215.378 152.688 214.679 149.471L190.744 154.671C191.225 156.884 191.517 158.906 191.65 160.748L216.08 158.985ZM214.38 155.789C213.713 157.882 212.281 159.733 210.397 160.905C208.77 161.917 207.434 162.039 207.174 162.058L205.412 137.628C203.193 137.788 200.279 138.353 197.459 140.107C194.381 142.022 192.138 144.917 191.043 148.353L214.38 155.789ZM207.174 162.058C205.813 162.156 204.427 161.953 203.145 161.462C201.902 160.986 201.012 160.339 200.446 159.826C199.438 158.912 199.271 158.257 199.541 158.86L221.897 148.854C220.366 145.434 215.598 136.893 205.412 137.628L207.174 162.058ZM199.541 158.86C199.984 159.85 200.606 162.029 200.892 165.99L225.321 164.228C224.929 158.783 223.959 153.461 221.897 148.854L199.541 158.86Z" fill="black"/>
<path d="M222.33 154.811L208.047 152.392C203.408 151.607 201.437 146.032 204.551 142.505L213.331 132.562L264.318 111.939L273.318 134.188L222.33 154.811Z" fill="white"/>
<path d="M273.317 134.191L264.318 111.942L273.588 108.193C277.684 106.536 282.348 108.514 284.004 112.609L287.004 120.026C288.661 124.122 286.683 128.785 282.587 130.442L273.317 134.191Z" fill="white"/>
<path d="M222.33 154.811L273.318 134.188L264.318 111.939L213.331 132.562M222.33 154.811L208.047 152.392C203.408 151.607 201.437 146.032 204.551 142.505L213.331 132.562M222.33 154.811L213.331 132.562M273.317 134.191L264.318 111.942L273.588 108.193C277.684 106.536 282.348 108.514 284.004 112.609L287.004 120.026C288.661 124.122 286.683 128.785 282.587 130.442L273.317 134.191Z" stroke="black" stroke-width="9"/>
</g>
<defs>
<clipPath id="clip0_619_735">
<rect width="304" height="304" fill="white"/>
</clipPath>
</defs>
</svg>
