<svg width="110" height="110" viewBox="0 0 110 110" fill="none" xmlns="http://www.w3.org/2000/svg">
<circle cx="55" cy="55" r="53" stroke="black" stroke-width="4"/>
<circle cx="32.8596" cy="41.8596" r="7.85955" stroke="black" stroke-width="4"/>
<circle cx="78.1404" cy="41.8596" r="7.85955" stroke="black" stroke-width="4"/>
<path d="M35 68.5C35 73.9369 37.1598 79.1512 41.0043 82.9957C44.8488 86.8402 50.0631 89 55.5 89C60.9369 89 66.1512 86.8402 69.9957 82.9957C73.8402 79.1512 76 73.9369 76 68.5L71.9836 68.5C71.9836 72.8717 70.2469 77.0644 67.1556 80.1556C64.0644 83.2469 59.8717 84.9836 55.5 84.9836C51.1283 84.9836 46.9356 83.2469 43.8444 80.1556C40.7531 77.0644 39.0164 72.8717 39.0164 68.5L35 68.5Z" fill="black"/>
</svg>
