<svg width="110" height="110" viewBox="0 0 110 110" fill="none" xmlns="http://www.w3.org/2000/svg">
<path d="M30.2299 46.2072C30.107 45.0271 31.0326 44 32.2192 44H76.8264C77.9965 44 78.9167 45.0001 78.8195 46.1661L75.1528 90.1661C75.0664 91.2027 74.1999 92 73.1597 92H36.8025C35.7781 92 34.9194 91.226 34.8133 90.2072L30.2299 46.2072Z" stroke="black" stroke-width="4"/>
<rect x="53" y="51.041" width="4" height="34" rx="2" fill="black"/>
<rect x="42" y="51.0996" width="4" height="34" rx="2" transform="rotate(-1.89893 42 51.0996)" fill="black"/>
<rect width="4" height="34" rx="2" transform="matrix(-0.999451 -0.0331365 -0.0331365 0.999451 68 51.0996)" fill="black"/>
<path d="M30.1409 26.3153C30.3582 25.2323 31.4123 24.5305 32.4952 24.7477L78.6044 33.9982C79.6874 34.2154 80.3892 35.2695 80.1719 36.3525L79.3851 40.2743L29.3541 30.2371L30.1409 26.3153Z" stroke="black" stroke-width="4"/>
<path d="M50.1409 22.3153C50.3582 21.2323 51.4123 20.5305 52.4952 20.7477L63.94 23.0438C65.023 23.261 65.7248 24.3151 65.5075 25.3981L64.5858 29.9924L49.2192 26.9096L50.1409 22.3153Z" stroke="black" stroke-width="4"/>
</svg>
