<svg width="62" height="73" viewBox="0 0 62 73" fill="none" xmlns="http://www.w3.org/2000/svg">
<mask id="path-1-outside-1_618_533" maskUnits="userSpaceOnUse" x="0" y="-0.472168" width="62" height="73" fill="black">
<rect fill="white" y="-0.472168" width="62" height="73"/>
<path fill-rule="evenodd" clip-rule="evenodd" d="M51.6524 43.8391C51.5234 44.9352 52.3069 45.9287 53.4031 46.0588C54.1989 46.1531 54.9409 45.7665 55.338 45.1282C55.5934 44.7176 55.2355 44.2621 54.7552 44.2051L53.6387 44.0727C55.6248 44.3082 55.6248 44.3076 55.6249 44.307L55.6251 44.3054L55.6256 44.3013L55.6269 44.2894L55.6312 44.2514C55.6346 44.2198 55.6393 44.1756 55.6449 44.1194C55.656 44.0071 55.6708 43.8467 55.6868 43.6426C55.7187 43.2345 55.7553 42.6507 55.7768 41.9261C55.8197 40.4791 55.8025 38.4581 55.5624 36.146C55.0867 31.5643 53.7142 25.6259 49.9882 20.796C48.5027 18.8705 46.6053 17.4023 44.5566 16.2801C44.2271 16.0997 44.0382 15.7359 44.0933 15.3643L45.2553 7.53321C45.3542 6.86648 44.6943 6.34268 44.0674 6.59037L25.4102 13.9623C24.7833 14.21 24.6597 15.0434 25.1876 15.4625L40.9005 27.9341C41.4285 28.3532 42.2121 28.0436 42.311 27.3768L43.1786 21.5293C43.2708 20.9078 43.9681 20.5847 44.4722 20.9599C45.3696 21.6279 46.1616 22.3845 46.8211 23.2393C49.8989 27.229 51.1435 32.3181 51.5838 36.5591C51.8017 38.6582 51.8174 40.4973 51.7785 41.8076C51.7591 42.4616 51.7263 42.9807 51.6989 43.3309C51.6852 43.5059 51.6729 43.6385 51.6644 43.7243C51.6602 43.7672 51.6568 43.7985 51.6548 43.8174L51.6526 43.8367V43.8367C51.6526 43.8369 51.6528 43.8371 51.653 43.8372L53.6387 44.0727C51.6526 43.8371 51.6525 43.8376 51.6525 43.8381L51.6524 43.8388L51.6524 43.8391ZM10.1637 32.693L10.1637 32.6937L10.1635 32.6952L10.1611 32.7149C10.1588 32.7343 10.1551 32.7661 10.1503 32.8097C10.1408 32.897 10.127 33.0313 10.1117 33.2078C10.0809 33.5609 10.0438 34.081 10.0211 34.728C9.97546 36.0261 9.98831 37.8142 10.2186 39.7785C10.6893 43.7931 12.0184 48.1276 15.1447 50.7783C15.8588 51.3837 16.6828 51.9476 17.5923 52.4709C18.0882 52.7562 18.7074 52.4655 18.8329 51.9073L20.2441 45.6293C20.3919 44.9717 21.1962 44.7207 21.6918 45.1775L36.4422 58.7739C36.9379 59.2308 36.7531 60.0528 36.1096 60.2536L16.9596 66.2296C16.3161 66.4304 15.6966 65.8594 15.8445 65.2017L17.5292 57.707C17.6192 57.3064 17.4182 56.8984 17.0507 56.7154C15.4209 55.9037 13.8809 54.9509 12.5579 53.8293C8.26179 50.1868 6.7552 44.5889 6.24582 40.2443C5.9861 38.029 5.97282 36.0308 6.02357 34.5875C6.04901 33.8638 6.09074 33.2744 6.12676 32.8608C6.14478 32.6538 6.1614 32.4904 6.17391 32.3758C6.18016 32.3185 6.18539 32.2734 6.18925 32.241L6.19398 32.2021L6.1955 32.19L6.19603 32.1858L6.19624 32.1842C6.19633 32.1835 6.19641 32.1829 8.16954 32.4375L7.06481 32.2949C6.5852 32.233 6.23193 31.7738 6.49156 31.3659C6.89515 30.7317 7.64109 30.3527 8.43589 30.4552C9.5307 30.5965 10.3039 31.598 10.1638 32.6927L10.1637 32.693Z"/>
</mask>
<path fill-rule="evenodd" clip-rule="evenodd" d="M51.6524 43.8391C51.5234 44.9352 52.3069 45.9287 53.4031 46.0588C54.1989 46.1531 54.9409 45.7665 55.338 45.1282C55.5934 44.7176 55.2355 44.2621 54.7552 44.2051L53.6387 44.0727C55.6248 44.3082 55.6248 44.3076 55.6249 44.307L55.6251 44.3054L55.6256 44.3013L55.6269 44.2894L55.6312 44.2514C55.6346 44.2198 55.6393 44.1756 55.6449 44.1194C55.656 44.0071 55.6708 43.8467 55.6868 43.6426C55.7187 43.2345 55.7553 42.6507 55.7768 41.9261C55.8197 40.4791 55.8025 38.4581 55.5624 36.146C55.0867 31.5643 53.7142 25.6259 49.9882 20.796C48.5027 18.8705 46.6053 17.4023 44.5566 16.2801C44.2271 16.0997 44.0382 15.7359 44.0933 15.3643L45.2553 7.53321C45.3542 6.86648 44.6943 6.34268 44.0674 6.59037L25.4102 13.9623C24.7833 14.21 24.6597 15.0434 25.1876 15.4625L40.9005 27.9341C41.4285 28.3532 42.2121 28.0436 42.311 27.3768L43.1786 21.5293C43.2708 20.9078 43.9681 20.5847 44.4722 20.9599C45.3696 21.6279 46.1616 22.3845 46.8211 23.2393C49.8989 27.229 51.1435 32.3181 51.5838 36.5591C51.8017 38.6582 51.8174 40.4973 51.7785 41.8076C51.7591 42.4616 51.7263 42.9807 51.6989 43.3309C51.6852 43.5059 51.6729 43.6385 51.6644 43.7243C51.6602 43.7672 51.6568 43.7985 51.6548 43.8174L51.6526 43.8367V43.8367C51.6526 43.8369 51.6528 43.8371 51.653 43.8372L53.6387 44.0727C51.6526 43.8371 51.6525 43.8376 51.6525 43.8381L51.6524 43.8388L51.6524 43.8391ZM10.1637 32.693L10.1637 32.6937L10.1635 32.6952L10.1611 32.7149C10.1588 32.7343 10.1551 32.7661 10.1503 32.8097C10.1408 32.897 10.127 33.0313 10.1117 33.2078C10.0809 33.5609 10.0438 34.081 10.0211 34.728C9.97546 36.0261 9.98831 37.8142 10.2186 39.7785C10.6893 43.7931 12.0184 48.1276 15.1447 50.7783C15.8588 51.3837 16.6828 51.9476 17.5923 52.4709C18.0882 52.7562 18.7074 52.4655 18.8329 51.9073L20.2441 45.6293C20.3919 44.9717 21.1962 44.7207 21.6918 45.1775L36.4422 58.7739C36.9379 59.2308 36.7531 60.0528 36.1096 60.2536L16.9596 66.2296C16.3161 66.4304 15.6966 65.8594 15.8445 65.2017L17.5292 57.707C17.6192 57.3064 17.4182 56.8984 17.0507 56.7154C15.4209 55.9037 13.8809 54.9509 12.5579 53.8293C8.26179 50.1868 6.7552 44.5889 6.24582 40.2443C5.9861 38.029 5.97282 36.0308 6.02357 34.5875C6.04901 33.8638 6.09074 33.2744 6.12676 32.8608C6.14478 32.6538 6.1614 32.4904 6.17391 32.3758C6.18016 32.3185 6.18539 32.2734 6.18925 32.241L6.19398 32.2021L6.1955 32.19L6.19603 32.1858L6.19624 32.1842C6.19633 32.1835 6.19641 32.1829 8.16954 32.4375L7.06481 32.2949C6.5852 32.233 6.23193 31.7738 6.49156 31.3659C6.89515 30.7317 7.64109 30.3527 8.43589 30.4552C9.5307 30.5965 10.3039 31.598 10.1638 32.6927L10.1637 32.693Z" fill="white"/>
<path d="M53.4031 46.0588L52.6964 52.017L52.6964 52.017L53.4031 46.0588ZM51.6524 43.8391L45.6997 43.0865L45.6965 43.1124L45.6934 43.1383L51.6524 43.8391ZM53.6387 44.0727L54.3454 38.1144L53.6387 44.0727ZM55.6249 44.307L61.5822 45.0218L61.5831 45.0137L61.5841 45.0055L55.6249 44.307ZM55.6251 44.3054L61.5843 45.0039L61.5849 44.999L55.6251 44.3054ZM55.6256 44.3013L61.5853 44.9949L61.5862 44.9877L55.6256 44.3013ZM55.6269 44.2894L61.5875 44.9759L61.5888 44.9646L61.5901 44.9533L55.6269 44.2894ZM55.6312 44.2514L61.5943 44.9153L61.5958 44.9022L55.6312 44.2514ZM55.6449 44.1194L61.6155 44.7122L61.6155 44.7121L55.6449 44.1194ZM55.6868 43.6426L49.705 43.175L49.705 43.1751L55.6868 43.6426ZM55.7768 41.9261L49.7794 41.7483L49.7794 41.7483L55.7768 41.9261ZM55.5624 36.146L49.5945 36.7656L49.5945 36.7656L55.5624 36.146ZM49.9882 20.796L54.7388 17.1312L54.7388 17.1312L49.9882 20.796ZM46.8211 23.2393L51.5717 19.5744L51.5717 19.5744L46.8211 23.2393ZM51.5838 36.5591L57.5517 35.9394L57.5517 35.9394L51.5838 36.5591ZM51.7785 41.8076L57.7759 41.9853L57.7759 41.9853L51.7785 41.8076ZM51.6989 43.3309L45.7172 42.8633L45.7172 42.8633L51.6989 43.3309ZM51.6644 43.7243L57.6351 44.3171L57.6351 44.317L51.6644 43.7243ZM51.6548 43.8174L57.6181 44.4802L57.6194 44.4683L51.6548 43.8174ZM51.6525 43.8381L57.6121 44.5334L57.613 44.525L57.614 44.5166L51.6525 43.8381ZM51.6524 43.8388L57.605 44.5914L57.6086 44.5628L57.612 44.5341L51.6524 43.8388ZM10.1637 32.6937L4.21207 31.933L4.21025 31.9473L4.2085 31.9615L10.1637 32.6937ZM10.1637 32.693L4.21359 31.9211L4.21215 31.9324L10.1637 32.693ZM10.1635 32.6952L4.2083 31.963L4.2072 31.9722L10.1635 32.6952ZM10.1611 32.7149L4.2048 31.9918L4.20332 32.0042L10.1611 32.7149ZM10.1503 32.8097L16.1149 33.4605L16.1149 33.4605L10.1503 32.8097ZM10.1117 33.2078L16.0891 33.7282L16.0891 33.7282L10.1117 33.2078ZM10.0211 34.728L16.0174 34.9388L16.0174 34.9388L10.0211 34.728ZM10.2186 39.7785L4.25943 40.4772L4.25943 40.4772L10.2186 39.7785ZM15.1447 50.7783L19.0249 46.2018L19.0249 46.2018L15.1447 50.7783ZM12.5579 53.8293L16.4381 49.2528L16.4381 49.2528L12.5579 53.8293ZM6.24582 40.2443L0.286641 40.9429L0.286641 40.9429L6.24582 40.2443ZM6.02357 34.5875L0.0272699 34.3767L0.0272699 34.3767L6.02357 34.5875ZM6.12676 32.8608L0.149377 32.3403L0.149376 32.3403L6.12676 32.8608ZM6.17391 32.3758L0.20931 31.725L0.209308 31.725L6.17391 32.3758ZM6.18925 32.241L0.233093 31.5169L0.231506 31.5302L6.18925 32.241ZM6.19398 32.2021L0.240568 31.4559L0.239181 31.4669L0.237835 31.478L6.19398 32.2021ZM6.1955 32.19L0.243466 31.4327L0.242085 31.4438L6.1955 32.19ZM6.19603 32.1858L0.244753 31.4227L0.24401 31.4285L6.19603 32.1858ZM6.19624 32.1842L12.1475 32.9473L12.1476 32.9463L6.19624 32.1842ZM8.43589 30.4552L9.20367 24.5046L9.20367 24.5046L8.43589 30.4552ZM10.1638 32.6927L16.1139 33.4646L16.1152 33.4544L10.1638 32.6927ZM7.06481 32.2949L7.83259 26.3442L7.06481 32.2949ZM6.49156 31.3659L11.5534 34.5873L6.49156 31.3659ZM17.5292 57.707L11.6753 56.3911L17.5292 57.707ZM17.0507 56.7154L19.7254 51.3445L17.0507 56.7154ZM44.4722 20.9599L48.0547 16.1469L44.4722 20.9599ZM16.9596 66.2296L18.747 71.9572L16.9596 66.2296ZM40.9005 27.9341L37.1704 32.6337L40.9005 27.9341ZM42.311 27.3768L48.246 28.2574L42.311 27.3768ZM36.4422 58.7739L40.5088 54.3622L36.4422 58.7739ZM36.1096 60.2536L34.3223 54.526L36.1096 60.2536ZM45.2553 7.53321L39.3203 6.6526L45.2553 7.53321ZM44.0674 6.59037L41.8625 1.01018L44.0674 6.59037ZM17.5923 52.4709L20.5844 47.2701L17.5923 52.4709ZM18.8329 51.9073L12.979 50.5914L18.8329 51.9073ZM20.2441 45.6293L14.3902 44.3134L20.2441 45.6293ZM21.6918 45.1775L17.6253 49.5892L21.6918 45.1775ZM25.4102 13.9623L23.2053 8.38214L25.4102 13.9623ZM25.1876 15.4625L28.9178 10.7629L25.1876 15.4625ZM51.6526 43.8367L45.6893 43.1739L45.6863 43.2018L45.6834 43.2296L51.6526 43.8367ZM51.653 43.8372L52.3597 37.8789L51.653 43.8372ZM44.5566 16.2801L41.6742 21.5425L44.5566 16.2801ZM44.0933 15.3643L38.1583 14.4837L44.0933 15.3643ZM55.338 45.1282L60.4326 48.2976L55.338 45.1282ZM54.7552 44.2051L55.4619 38.2469L54.7552 44.2051ZM54.1098 40.1005C56.3022 40.3606 57.8691 42.3476 57.6113 44.5399L45.6934 43.1383C45.1778 47.5228 48.3115 51.4969 52.6964 52.017L54.1098 40.1005ZM50.2433 41.9589C51.0294 40.6953 52.5091 39.9107 54.1098 40.1005L52.6964 52.017C55.8887 52.3956 58.8524 50.8377 60.4326 48.2976L50.2433 41.9589ZM52.932 50.0309L54.0486 50.1633L55.4619 38.2469L54.3454 38.1144L52.932 50.0309ZM49.6676 43.5921C49.6563 43.687 49.7558 41.8104 51.2275 40.225C52.4971 38.8572 53.9828 38.5229 54.3643 38.4409C54.8828 38.3295 55.2982 38.3145 55.4302 38.3102C55.6108 38.3043 55.7537 38.308 55.8241 38.3103C55.9662 38.3151 56.0767 38.324 56.1066 38.3264C56.1517 38.3301 56.187 38.3335 56.2035 38.3351C56.2545 38.3401 56.2932 38.3446 56.2713 38.3421C56.2539 38.3401 56.2033 38.3343 56.0775 38.3195C55.8325 38.2907 55.3388 38.2323 54.3454 38.1144L52.932 50.0309C53.9246 50.1486 54.424 50.2077 54.6756 50.2373C54.7981 50.2517 54.8717 50.2603 54.9163 50.2654C54.9255 50.2664 54.9797 50.2727 55.0385 50.2784C55.0569 50.2802 55.0937 50.2837 55.1399 50.2874C55.1709 50.2899 55.2821 50.2989 55.4247 50.3037C55.4954 50.306 55.6384 50.3097 55.8192 50.3039C55.9513 50.2996 56.3668 50.2845 56.8854 50.1731C57.267 50.0911 58.7526 49.7568 60.0223 48.389C61.494 46.8035 61.5936 44.9269 61.5822 45.0218L49.6676 43.5921ZM49.6659 43.6068L49.6657 43.6084L61.5841 45.0055L61.5843 45.0039L49.6659 43.6068ZM49.6658 43.6076L49.6653 43.6117L61.5849 44.999L61.5853 44.9949L49.6658 43.6076ZM49.6663 43.603L49.665 43.6148L61.5862 44.9877L61.5875 44.9759L49.6663 43.603ZM49.668 43.5875L49.6638 43.6255L61.5901 44.9533L61.5943 44.9153L49.668 43.5875ZM49.6742 43.5266C49.6706 43.5629 49.668 43.5878 49.6666 43.6007L61.5958 44.9022C61.6013 44.8518 61.608 44.7883 61.6155 44.7122L49.6742 43.5266ZM49.705 43.1751C49.6925 43.3355 49.6814 43.4541 49.6742 43.5268L61.6155 44.7121C61.6306 44.5601 61.6491 44.3579 61.6685 44.1101L49.705 43.1751ZM49.7794 41.7483C49.7611 42.367 49.7301 42.8537 49.705 43.175L61.6685 44.1102C61.7072 43.6153 61.7495 42.9344 61.7741 42.1038L49.7794 41.7483ZM49.5945 36.7656C49.8014 38.7583 49.8162 40.5063 49.7794 41.7483L61.7741 42.1038C61.8231 40.4519 61.8036 38.1579 61.5303 35.5263L49.5945 36.7656ZM45.2375 24.4609C47.9912 28.0305 49.1718 32.6951 49.5945 36.7656L61.5303 35.5263C61.0015 30.4335 59.4371 23.2214 54.7388 17.1312L45.2375 24.4609ZM41.6742 21.5425C43.168 22.3606 44.365 23.3299 45.2375 24.4609L54.7388 17.1312C52.6404 14.4111 50.0426 12.4439 47.4389 11.0178L41.6742 21.5425ZM39.3203 6.6526L38.1583 14.4837L50.0284 16.2449L51.1903 8.41383L39.3203 6.6526ZM27.6151 19.5425L46.2723 12.1706L41.8625 1.01018L23.2053 8.38214L27.6151 19.5425ZM44.6307 23.2346L28.9178 10.7629L21.4575 20.1621L37.1704 32.6337L44.6307 23.2346ZM37.2436 20.6487L36.376 26.4962L48.246 28.2574L49.1136 22.41L37.2436 20.6487ZM51.5717 19.5744C50.5371 18.2333 49.3361 17.1007 48.0547 16.1469L40.8896 25.773C41.403 26.1551 41.7861 26.5357 42.0704 26.9042L51.5717 19.5744ZM57.5517 35.9394C57.0583 31.1873 55.6218 24.8244 51.5717 19.5744L42.0704 26.9042C44.176 29.6335 45.2286 33.449 45.6159 37.1787L57.5517 35.9394ZM57.7759 41.9853C57.8208 40.4701 57.8028 38.3581 57.5517 35.9394L45.6159 37.1787C45.8007 38.9584 45.8139 40.5244 45.7812 41.6298L57.7759 41.9853ZM57.6807 43.7985C57.7148 43.3615 57.7534 42.7453 57.7759 41.9853L45.7812 41.6298C45.7649 42.1779 45.7378 42.5999 45.7172 42.8633L57.6807 43.7985ZM57.6351 44.317C57.6475 44.1915 57.6636 44.0172 57.6807 43.7984L45.7172 42.8633C45.7069 42.9946 45.6984 43.0854 45.6938 43.1317L57.6351 44.317ZM57.6194 44.4683C57.6235 44.4304 57.6288 44.3798 57.6351 44.3171L45.6938 43.1316C45.6926 43.1431 45.6917 43.1519 45.6911 43.1577C45.6905 43.1636 45.6902 43.1666 45.6902 43.1666L57.6194 44.4683ZM57.6159 44.4994L57.6181 44.4802L45.6915 43.1547L45.6893 43.1739L57.6159 44.4994ZM50.9464 49.7954L52.932 50.0309L54.3454 38.1144L52.3597 37.8789L50.9464 49.7954ZM54.3454 38.1144C53.3526 37.9967 52.8539 37.9377 52.603 37.9081C52.4799 37.8936 52.4094 37.8853 52.3683 37.8806C52.3571 37.8793 52.3159 37.8746 52.2724 37.8701C52.2589 37.8687 52.2324 37.866 52.1993 37.863C52.1769 37.8609 52.0976 37.8537 51.996 37.8479C51.9458 37.845 51.8436 37.8397 51.7142 37.8384C51.6237 37.8374 51.3184 37.8347 50.931 37.8816C50.8079 37.8965 49.3789 38.0204 48.0012 39.077C45.8667 40.714 45.704 43.0447 45.691 43.1596L57.614 44.5166C57.614 44.5167 57.6083 44.5648 57.6022 44.6129C57.5958 44.6609 57.5741 44.8044 57.5578 44.8997C57.5131 45.1486 57.4277 45.5354 57.2544 45.9871C56.8606 47.0136 56.189 47.9203 55.3038 48.5991C54.5294 49.193 53.7865 49.4627 53.3685 49.5875C52.9334 49.7173 52.5734 49.7704 52.3741 49.7945C51.9868 49.8414 51.6815 49.8387 51.5911 49.8377C51.4619 49.8364 51.3599 49.8311 51.3099 49.8283C51.2088 49.8225 51.1302 49.8153 51.109 49.8133C51.0769 49.8104 51.0519 49.8079 51.0403 49.8067C51.0046 49.803 50.979 49.7999 50.9988 49.8022C51.0198 49.8046 51.0734 49.8109 51.1986 49.8256C51.4443 49.8546 51.9387 49.9131 52.932 50.0309L54.3454 38.1144ZM57.612 44.5341L57.6121 44.5334L45.6929 43.1428L45.6928 43.1435L57.612 44.5341ZM57.605 44.5917L57.605 44.5914L45.6998 43.0862L45.6997 43.0865L57.605 44.5917ZM16.1152 33.4544L16.1153 33.4537L4.21215 31.9324L4.21207 31.933L16.1152 33.4544ZM16.1186 33.4274L16.1188 33.4259L4.2085 31.9615L4.20831 31.963L16.1186 33.4274ZM16.1174 33.4379L16.1197 33.4183L4.2072 31.9722L4.20481 31.9918L16.1174 33.4379ZM16.1149 33.4605C16.1174 33.4374 16.1188 33.4256 16.1188 33.4256L4.20332 32.0042C4.1987 32.0429 4.19271 32.0947 4.18571 32.1589L16.1149 33.4605ZM16.0891 33.7282C16.1004 33.5976 16.1099 33.5067 16.1149 33.4605L4.18571 32.1589C4.17171 32.2872 4.15365 32.4651 4.1343 32.6873L16.0891 33.7282ZM16.0174 34.9388C16.0361 34.4068 16.0662 33.9906 16.0891 33.7282L4.1343 32.6873C4.09564 33.1312 4.05159 33.7552 4.0248 34.5172L16.0174 34.9388ZM16.1778 39.0798C15.9916 37.4919 15.9794 36.0189 16.0174 34.9388L4.0248 34.5172C3.9715 36.0332 3.98499 38.1364 4.25943 40.4772L16.1778 39.0798ZM19.0249 46.2018C17.6525 45.0382 16.5902 42.5977 16.1778 39.0798L4.25943 40.4772C4.78835 44.9885 6.38426 51.2171 11.2645 55.3548L19.0249 46.2018ZM20.5844 47.2701C19.9244 46.8904 19.4107 46.5289 19.0249 46.2018L11.2645 55.3548C12.3069 56.2385 13.4412 57.0048 14.6003 57.6716L20.5844 47.2701ZM14.3902 44.3134L12.979 50.5914L24.6868 53.2232L26.098 46.9452L14.3902 44.3134ZM40.5088 54.3622L25.7584 40.7658L17.6253 49.5892L32.3757 63.1856L40.5088 54.3622ZM18.747 71.9572L37.897 65.9812L34.3223 54.526L15.1722 60.502L18.747 71.9572ZM11.6753 56.3911L9.99054 63.8858L21.6984 66.5176L23.3831 59.0229L11.6753 56.3911ZM8.67775 58.4058C10.4606 59.9173 12.4364 61.1203 14.376 62.0862L19.7254 51.3445C18.4054 50.6872 17.3011 49.9845 16.4381 49.2528L8.67775 58.4058ZM0.286641 40.9429C0.853898 45.7812 2.62632 53.2751 8.67775 58.4058L16.4381 49.2528C13.8973 47.0986 12.6565 43.3965 12.205 39.5456L0.286641 40.9429ZM0.0272699 34.3767C-0.0311389 36.038 -0.0172148 38.3513 0.286641 40.9429L12.205 39.5456C11.9894 37.7067 11.9768 36.0236 12.0199 34.7983L0.0272699 34.3767ZM0.149376 32.3403C0.105448 32.8448 0.0567535 33.538 0.0272699 34.3767L12.0199 34.7983C12.0413 34.1896 12.076 33.7041 12.1041 33.3813L0.149376 32.3403ZM0.209308 31.725C0.192327 31.8807 0.171385 32.0875 0.149377 32.3403L12.1041 33.3813C12.1182 33.2201 12.1305 33.1002 12.1385 33.0266L0.209308 31.725ZM0.231506 31.5302C0.225322 31.582 0.217804 31.6472 0.20931 31.725L12.1385 33.0266C12.1425 32.9899 12.1455 32.9647 12.147 32.9518L0.231506 31.5302ZM0.237835 31.478L0.233108 31.5169L12.1454 32.9651L12.1501 32.9262L0.237835 31.478ZM0.242085 31.4438L0.240568 31.4559L12.1474 32.9484L12.1489 32.9363L0.242085 31.4438ZM0.24401 31.4285L0.243477 31.4327L12.1475 32.9473L12.148 32.9431L0.24401 31.4285ZM0.244965 31.4211L0.244756 31.4227L12.1473 32.9489L12.1475 32.9473L0.244965 31.4211ZM8.93731 26.4868C7.95117 26.3596 7.45498 26.2957 7.20491 26.2637C7.08324 26.2481 7.00975 26.2388 6.96498 26.2332C6.95607 26.2321 6.90063 26.2252 6.84028 26.2187C6.82139 26.2167 6.78364 26.2127 6.73615 26.2084C6.70433 26.2055 6.58994 26.1952 6.44329 26.1892C6.37058 26.1862 6.22343 26.1813 6.03752 26.1862C5.90102 26.1898 5.47464 26.2029 4.94254 26.3166C4.53461 26.4038 3.04616 26.7453 1.77919 28.1234C1.08978 28.8733 0.689284 29.6891 0.468162 30.3984C0.367315 30.7218 0.31339 30.992 0.284225 31.1604C0.2733 31.2256 0.258259 31.3237 0.253604 31.3565C0.24913 31.3893 0.244836 31.4221 0.244835 31.4221L12.1476 32.9463C12.1476 32.9463 12.1433 32.9791 12.1389 33.0119C12.1342 33.0447 12.1192 33.1427 12.1083 33.2079C12.0791 33.3764 12.0252 33.6465 11.9243 33.97C11.7032 34.6792 11.3027 35.495 10.6133 36.2449C9.34635 37.623 7.85794 37.9645 7.45007 38.0517C6.91803 38.1654 6.49175 38.1784 6.35539 38.182C6.16961 38.1869 6.02265 38.182 5.95018 38.1791C5.80402 38.173 5.69036 38.1628 5.65963 38.16C5.61323 38.1558 5.57692 38.152 5.55997 38.1502C5.50734 38.1445 5.46734 38.1394 5.48929 38.1421C5.50621 38.1442 5.55608 38.1505 5.68108 38.1665C5.92435 38.1977 6.41477 38.2608 7.40176 38.3881L8.93731 26.4868ZM6.29703 38.2456L7.40176 38.3881L8.93732 26.4868L7.83259 26.3442L6.29703 38.2456ZM9.20367 24.5046C6.01544 24.0932 3.03589 25.6206 1.4297 28.1444L11.5534 34.5873C10.7544 35.8428 9.26673 36.6122 7.66811 36.4059L9.20367 24.5046ZM16.1152 33.4544C16.6757 29.0755 13.5829 25.0696 9.20367 24.5046L7.66811 36.4059C5.47846 36.1234 3.93209 34.1204 4.21234 31.9309L16.1152 33.4544ZM16.1139 33.4649L16.1139 33.4646L4.21365 31.9208L4.2136 31.9211L16.1139 33.4649ZM7.83259 26.3442C9.19631 26.5202 10.5812 27.2654 11.4916 28.6295C12.535 30.1929 12.8479 32.5532 11.5534 34.5873L1.4297 28.1444C-0.124456 30.5865 0.235271 33.3803 1.51033 35.2909C2.65233 37.002 4.4537 38.0078 6.29703 38.2456L7.83259 26.3442ZM23.3831 59.0229C24.097 55.8471 22.4911 52.7219 19.7254 51.3445L14.376 62.0862C12.3453 61.0749 11.1415 58.7658 11.6753 56.3911L23.3831 59.0229ZM49.1136 22.41C48.6084 25.8151 44.3915 28.3796 40.8896 25.773L48.0547 16.1469C43.5447 12.7899 37.9333 16.0004 37.2436 20.6487L49.1136 22.41ZM15.1722 60.502C18.9379 59.3269 22.5635 62.6689 21.6984 66.5176L9.99054 63.8858C8.82974 69.0498 13.6944 73.5339 18.747 71.9572L15.1722 60.502ZM37.1704 32.6337C41.3161 35.9242 47.4692 33.493 48.246 28.2574L36.376 26.4962C36.9549 22.5942 41.5409 20.7821 44.6307 23.2346L37.1704 32.6337ZM32.3757 63.1856C29.4751 60.512 30.5566 55.7011 34.3223 54.526L37.897 65.9812C42.9495 64.4045 44.4006 57.9495 40.5088 54.3622L32.3757 63.1856ZM51.1903 8.41383C51.9671 3.17828 46.785 -0.934822 41.8625 1.01018L46.2723 12.1706C42.6036 13.6202 38.7413 10.5547 39.3203 6.6526L51.1903 8.41383ZM14.6003 57.6716C18.796 60.0855 23.7247 57.5033 24.6868 53.2232L12.979 50.5914C13.6901 47.4277 17.3805 45.4269 20.5844 47.2701L14.6003 57.6716ZM26.098 46.9452C25.2329 50.7939 20.5258 52.2628 17.6253 49.5892L25.7584 40.7658C21.8667 37.1785 15.551 39.1494 14.3902 44.3134L26.098 46.9452ZM23.2053 8.38214C18.2828 10.3272 17.3118 16.8716 21.4575 20.1621L28.9178 10.7629C32.0075 13.2153 31.2839 18.0929 27.6151 19.5425L23.2053 8.38214ZM45.6834 43.2296C45.3521 46.4877 47.6943 49.4097 50.9464 49.7954L52.3597 37.8789C55.6113 38.2646 57.9531 41.1861 57.6219 44.4437L45.6834 43.2296ZM47.4389 11.0178C49.2253 11.9963 50.3563 14.0347 50.0284 16.2449L38.1583 14.4837C37.7201 17.4371 39.2289 20.2031 41.6742 21.5425L47.4389 11.0178ZM60.4326 48.2976C61.9617 45.8397 61.5733 43.0497 60.2787 41.1523C59.1192 39.453 57.3076 38.4658 55.4619 38.2469L54.0486 50.1633C52.6831 50.0014 51.2906 49.2704 50.3663 47.9158C49.3069 46.3631 48.9698 44.0062 50.2433 41.9589L60.4326 48.2976Z" fill="black" mask="url(#path-1-outside-1_618_533)"/>
</svg>
